<svg width="20" height="17" viewBox="0 0 20 17" fill="none" xmlns="http://www.w3.org/2000/svg">
<path d="M2 6.49988V14.4999H18V6.49988L10 9.49988L2 6.49988ZM2 2.49988V4.49988L10 7.49988L18 4.49988V2.49988H2ZM2 0.499878H18C18.5304 0.499878 19.0391 0.710592 19.4142 1.08566C19.7893 1.46074 20 1.96944 20 2.49988V14.4999C20 15.0303 19.7893 15.539 19.4142 15.9141C19.0391 16.2892 18.5304 16.4999 18 16.4999H2C1.46957 16.4999 0.960859 16.2892 0.585786 15.9141C0.210714 15.539 0 15.0303 0 14.4999V2.49988C0 1.96944 0.210714 1.46074 0.585786 1.08566C0.960859 0.710592 1.46957 0.499878 2 0.499878Z" fill="#0074B2"/>
</svg>
