<svg width="123" height="108" viewBox="0 0 123 108" fill="none" xmlns="http://www.w3.org/2000/svg">
<circle cx="30.5" cy="54.5" r="30.5" fill="#0074B2"/>
<path d="M39.3002 10.8C37.1519 10.8 35.0917 11.6534 33.5726 13.1724C32.0536 14.6915 31.2002 16.7517 31.2002 18.9V89.1C31.2002 91.2483 32.0536 93.3085 33.5726 94.8276C35.0917 96.3466 37.1519 97.2 39.3002 97.2H77.1002C79.2485 97.2 81.3087 96.3466 82.8278 94.8276C84.3468 93.3085 85.2002 91.2483 85.2002 89.1V81C85.2002 80.2839 84.9157 79.5972 84.4094 79.0908C83.903 78.5845 83.2163 78.3 82.5002 78.3C80.27 78.3 78.8444 77.7492 77.8778 77.0256C76.8896 76.2858 76.139 75.1788 75.5882 73.6614C74.4326 70.4862 74.4002 66.2796 74.4002 62.1C74.4001 61.7448 74.33 61.3931 74.1938 61.0651C74.0575 60.7371 73.8579 60.4392 73.6064 60.1884L72.062 58.6386L65.5118 52.0884C62.99 49.5666 62.2502 47.8764 62.1098 46.9314C62.0018 46.1754 62.2286 45.6678 62.7686 45.1494C63.9242 44.0424 64.7504 43.2918 65.6846 43.065C66.2408 42.9246 67.5098 42.8274 69.7886 45.1062L85.9886 61.3062C86.4949 61.8132 87.1818 62.0983 87.8983 62.0988C88.2531 62.0991 88.6044 62.0294 88.9323 61.8939C89.2601 61.7584 89.5581 61.5596 89.8091 61.3089C90.0601 61.0582 90.2593 60.7606 90.3953 60.4329C90.5313 60.1052 90.6014 59.754 90.6017 59.3992C90.602 59.0444 90.5323 58.6931 90.3968 58.3652C90.2613 58.0374 90.0625 57.7394 89.8118 57.4884L85.2002 52.8822V36.2178L99.0242 50.0418C99.7772 50.7939 100.375 51.687 100.782 52.6701C101.19 53.6531 101.4 54.7069 101.4 55.7712V94.5C101.4 95.2161 101.685 95.9028 102.191 96.4092C102.697 96.9155 103.384 97.2 104.1 97.2C104.816 97.2 105.503 96.9155 106.009 96.4092C106.516 95.9028 106.8 95.2161 106.8 94.5V55.7712C106.799 52.1924 105.378 48.7603 102.847 46.2294L85.2002 28.5822V18.9C85.2002 16.7517 84.3468 14.6915 82.8278 13.1724C81.3087 11.6534 79.2485 10.8 77.1002 10.8H39.3002ZM79.8002 29.7V47.4822L73.6118 41.2884C70.4852 38.1672 67.3802 37.0926 64.4048 37.8162C63.8203 37.9605 63.2535 38.1687 62.7146 38.4372C60.3008 37.738 57.7574 37.6097 55.2854 38.0625C52.8135 38.5154 50.4808 39.5369 48.4715 41.0465C46.4623 42.556 44.8318 44.5121 43.7086 46.7603C42.5855 49.0084 42.0006 51.4869 42.0002 54C42 57.1317 42.9075 60.1964 44.6129 62.823C46.3183 65.4496 48.7484 67.5256 51.6092 68.7998C54.47 70.0739 57.6388 70.4915 60.732 70.0021C63.8253 69.5126 66.7103 68.1371 69.038 66.042C69.1298 69.1632 69.443 72.576 70.5122 75.5082C71.3114 77.706 72.5858 79.8066 74.6378 81.3402L74.6702 81.3726C73.0259 81.8897 71.5894 82.9179 70.5696 84.3077C69.5499 85.6974 69.0001 87.3763 69.0002 89.1V91.8H47.4002V89.1C47.4002 86.9518 46.5468 84.8915 45.0278 83.3724C43.5087 81.8534 41.4484 81 39.3002 81H36.6002V27H39.3002C41.4484 27 43.5087 26.1466 45.0278 24.6276C46.5468 23.1085 47.4002 21.0483 47.4002 18.9V16.2H69.0002V18.9C69.0002 21.0483 69.8536 23.1085 71.3726 24.6276C72.8917 26.1466 74.9519 27 77.1002 27H79.8002V29.7ZM79.8002 89.1V89.1486C79.7875 89.8562 79.4974 90.5306 78.9924 91.0265C78.4874 91.5223 77.8079 91.8001 77.1002 91.8H74.4002V89.1C74.4002 88.3839 74.6847 87.6972 75.191 87.1908C75.6974 86.6845 76.3841 86.4 77.1002 86.4H79.8002V89.1ZM47.4002 54C47.4002 51.2535 48.4467 48.6101 50.3266 46.6078C52.2065 44.6055 54.7787 43.3946 57.5198 43.2216C56.8502 44.4636 56.51 45.9756 56.7692 47.7198C57.1526 50.3226 58.8104 53.028 61.6886 55.9062L66.5864 60.804C65.1804 62.5367 63.2721 63.7913 61.1241 64.3954C58.976 64.9995 56.6935 64.9234 54.5905 64.1776C52.4874 63.4318 50.667 62.0529 49.3794 60.2304C48.0919 58.4079 47.4005 56.2314 47.4002 54ZM42.0002 16.2V18.9C42.0002 19.6161 41.7157 20.3028 41.2094 20.8092C40.703 21.3155 40.0163 21.6 39.3002 21.6H36.6002V18.9C36.6002 18.1839 36.8847 17.4972 37.391 16.9908C37.8974 16.4845 38.5841 16.2 39.3002 16.2H42.0002ZM36.6002 86.4H39.3002C40.0163 86.4 40.703 86.6845 41.2094 87.1908C41.7157 87.6972 42.0002 88.3839 42.0002 89.1V91.8H39.3002C38.5841 91.8 37.8974 91.5155 37.391 91.0092C36.8847 90.5028 36.6002 89.8161 36.6002 89.1V86.4ZM79.8002 21.6H77.1002C76.3841 21.6 75.6974 21.3155 75.191 20.8092C74.6847 20.3028 74.4002 19.6161 74.4002 18.9V16.2H77.1002C77.8163 16.2 78.503 16.4845 79.0094 16.9908C79.5157 17.4972 79.8002 18.1839 79.8002 18.9V21.6Z" fill="black"/>
</svg>
