<svg width="95" height="100" viewBox="0 0 95 100" fill="none" xmlns="http://www.w3.org/2000/svg">
<path d="M85.1538 3H9.84615C8.03044 3 6.28909 3.75694 5.00519 5.1043C3.72129 6.45167 3 8.27908 3 10.1845V71.2532C3 73.1586 3.72129 74.986 5.00519 76.3334C6.28909 77.6807 8.03044 78.4377 9.84615 78.4377H23.5385V96.399L44.8985 78.4377H85.1538C86.9696 78.4377 88.7109 77.6807 89.9948 76.3334C91.2787 74.986 92 73.1586 92 71.2532V10.1845C92 8.27908 91.2787 6.45167 89.9948 5.1043C88.7109 3.75694 86.9696 3 85.1538 3Z" fill="white" stroke="#0074B2" stroke-width="6" stroke-linecap="round" stroke-linejoin="round"/>
<path d="M36.8586 31.1358C36.8586 28.9845 37.4827 26.8815 38.652 25.0927C39.8213 23.304 41.4833 21.9098 43.4277 21.0865C45.3721 20.2633 47.5117 20.0479 49.576 20.4676C51.6402 20.8873 53.5363 21.9232 55.0245 23.4444C56.5127 24.9656 57.5262 26.9038 57.9368 29.0137C58.3474 31.1237 58.1366 33.3107 57.3312 35.2983C56.5258 37.2858 55.1619 38.9846 53.4119 40.1798C51.662 41.375 49.6046 42.013 47.4999 42.013V45.6387" stroke="#0074B2" stroke-width="6" stroke-linecap="round" stroke-linejoin="round"/>
<path d="M47.5 56.806C46.5434 56.806 45.6082 57.1037 44.8128 57.6614C44.0173 58.2192 43.3974 59.012 43.0313 59.9395C42.6652 60.867 42.5694 61.8876 42.756 62.8723C42.9427 63.8569 43.4033 64.7614 44.0798 65.4713C44.7563 66.1812 45.6181 66.6646 46.5564 66.8605C47.4947 67.0564 48.4672 66.9558 49.3511 66.5716C50.2349 66.1875 50.9903 65.5368 51.5218 64.7021C52.0533 63.8673 52.337 62.8859 52.337 61.882C52.3203 60.5412 51.8053 59.2603 50.9018 58.3121C49.9983 57.3639 48.7777 56.8235 47.5 56.806Z" fill="#0074B2"/>
</svg>
