<svg width="64" height="60" viewBox="0 0 64 60" fill="none" xmlns="http://www.w3.org/2000/svg">
<path id="Vector" d="M26.3529 11.25C24.356 11.25 22.4409 12.0402 21.0288 13.4467C19.6168 14.8532 18.8235 16.7609 18.8235 18.75C18.8235 20.7391 19.6168 22.6468 21.0288 24.0533C22.4409 25.4598 24.356 26.25 26.3529 26.25C28.3499 26.25 30.265 25.4598 31.677 24.0533C33.0891 22.6468 33.8824 20.7391 33.8824 18.75C33.8824 16.7609 33.0891 14.8532 31.677 13.4467C30.265 12.0402 28.3499 11.25 26.3529 11.25ZM22.5882 18.75C22.5882 17.7554 22.9849 16.8016 23.6909 16.0984C24.3969 15.3951 25.3545 15 26.3529 15C27.3514 15 28.309 15.3951 29.015 16.0984C29.721 16.8016 30.1176 17.7554 30.1176 18.75C30.1176 19.7446 29.721 20.6984 29.015 21.4016C28.309 22.1049 27.3514 22.5 26.3529 22.5C25.3545 22.5 24.3969 22.1049 23.6909 21.4016C22.9849 20.6984 22.5882 19.7446 22.5882 18.75ZM0 5.625C0 4.13316 0.594956 2.70242 1.65399 1.64752C2.71301 0.592632 4.14937 0 5.64706 0H47.0588C48.5565 0 49.9929 0.592632 51.0519 1.64752C52.1109 2.70242 52.7059 4.13316 52.7059 5.625V18.75H48.9412V15H45.1765C43.1795 15 41.2644 14.2098 39.8524 12.8033C38.4403 11.3968 37.6471 9.48912 37.6471 7.5V3.75H15.0588V7.5C15.0588 9.48912 14.2655 11.3968 12.8535 12.8033C11.4415 14.2098 9.52634 15 7.52941 15H3.76471V22.5H7.52941C9.52634 22.5 11.4415 23.2902 12.8535 24.6967C14.2655 26.1032 15.0588 28.0109 15.0588 30V33.75H33.8824V37.5H5.64706C4.14937 37.5 2.71301 36.9074 1.65399 35.8525C0.594956 34.7976 0 33.3668 0 31.875V5.625ZM5.64706 3.75C5.14783 3.75 4.66904 3.94754 4.31603 4.29918C3.96303 4.65081 3.76471 5.12772 3.76471 5.625V11.25H7.52941C8.52787 11.25 9.48544 10.8549 10.1915 10.1516C10.8975 9.44839 11.2941 8.49456 11.2941 7.5V3.75H5.64706ZM47.0588 3.75H41.4118V7.5C41.4118 8.49456 41.8084 9.44839 42.5144 10.1516C43.2204 10.8549 44.178 11.25 45.1765 11.25H48.9412V5.625C48.9412 5.12772 48.7429 4.65081 48.3899 4.29918C48.0368 3.94754 47.5581 3.75 47.0588 3.75ZM5.64706 33.75H11.2941V30C11.2941 29.0054 10.8975 28.0516 10.1915 27.3484C9.48544 26.6451 8.52787 26.25 7.52941 26.25H3.76471V31.875C3.76471 32.3723 3.96303 32.8492 4.31603 33.2008C4.66904 33.5525 5.14783 33.75 5.64706 33.75ZM56.4706 18.75V7.81875C57.5721 8.20666 58.5256 8.92531 59.1999 9.87566C59.8742 10.826 60.2359 11.9613 60.2353 13.125V18.75H56.4706ZM33.8824 41.25V45H13.1765C12.0082 45.0006 10.8685 44.6403 9.91439 43.9686C8.96031 43.297 8.23884 42.3472 7.84941 41.25H33.8824ZM43.2941 22.5C41.7964 22.5 40.3601 23.0926 39.301 24.1475C38.242 25.2024 37.6471 26.6332 37.6471 28.125V54.375C37.6471 55.8668 38.242 57.2976 39.301 58.3525C40.3601 59.4074 41.7964 60 43.2941 60H58.3529C59.8506 60 61.287 59.4074 62.346 58.3525C63.405 57.2976 64 55.8668 64 54.375V28.125C64 26.6332 63.405 25.2024 62.346 24.1475C61.287 23.0926 59.8506 22.5 58.3529 22.5H43.2941ZM43.2941 37.5H47.0588C47.5581 37.5 48.0368 37.6975 48.3899 38.0492C48.7429 38.4008 48.9412 38.8777 48.9412 39.375C48.9412 39.8723 48.7429 40.3492 48.3899 40.7008C48.0368 41.0525 47.5581 41.25 47.0588 41.25H43.2941C42.7949 41.25 42.3161 41.0525 41.9631 40.7008C41.6101 40.3492 41.4118 39.8723 41.4118 39.375C41.4118 38.8777 41.6101 38.4008 41.9631 38.0492C42.3161 37.6975 42.7949 37.5 43.2941 37.5ZM54.5882 37.5H58.3529C58.8522 37.5 59.331 37.6975 59.684 38.0492C60.037 38.4008 60.2353 38.8777 60.2353 39.375C60.2353 39.8723 60.037 40.3492 59.684 40.7008C59.331 41.0525 58.8522 41.25 58.3529 41.25H54.5882C54.089 41.25 53.6102 41.0525 53.2572 40.7008C52.9042 40.3492 52.7059 39.8723 52.7059 39.375C52.7059 38.8777 52.9042 38.4008 53.2572 38.0492C53.6102 37.6975 54.089 37.5 54.5882 37.5ZM43.2941 45H47.0588C47.5581 45 48.0368 45.1975 48.3899 45.5492C48.7429 45.9008 48.9412 46.3777 48.9412 46.875C48.9412 47.3723 48.7429 47.8492 48.3899 48.2008C48.0368 48.5525 47.5581 48.75 47.0588 48.75H43.2941C42.7949 48.75 42.3161 48.5525 41.9631 48.2008C41.6101 47.8492 41.4118 47.3723 41.4118 46.875C41.4118 46.3777 41.6101 45.9008 41.9631 45.5492C42.3161 45.1975 42.7949 45 43.2941 45ZM54.5882 45H58.3529C58.8522 45 59.331 45.1975 59.684 45.5492C60.037 45.9008 60.2353 46.3777 60.2353 46.875C60.2353 47.3723 60.037 47.8492 59.684 48.2008C59.331 48.5525 58.8522 48.75 58.3529 48.75H54.5882C54.089 48.75 53.6102 48.5525 53.2572 48.2008C52.9042 47.8492 52.7059 47.3723 52.7059 46.875C52.7059 46.3777 52.9042 45.9008 53.2572 45.5492C53.6102 45.1975 54.089 45 54.5882 45ZM43.2941 52.5H47.0588C47.5581 52.5 48.0368 52.6975 48.3899 53.0492C48.7429 53.4008 48.9412 53.8777 48.9412 54.375C48.9412 54.8723 48.7429 55.3492 48.3899 55.7008C48.0368 56.0525 47.5581 56.25 47.0588 56.25H43.2941C42.7949 56.25 42.3161 56.0525 41.9631 55.7008C41.6101 55.3492 41.4118 54.8723 41.4118 54.375C41.4118 53.8777 41.6101 53.4008 41.9631 53.0492C42.3161 52.6975 42.7949 52.5 43.2941 52.5ZM54.5882 52.5H58.3529C58.8522 52.5 59.331 52.6975 59.684 53.0492C60.037 53.4008 60.2353 53.8777 60.2353 54.375C60.2353 54.8723 60.037 55.3492 59.684 55.7008C59.331 56.0525 58.8522 56.25 58.3529 56.25H54.5882C54.089 56.25 53.6102 56.0525 53.2572 55.7008C52.9042 55.3492 52.7059 54.8723 52.7059 54.375C52.7059 53.8777 52.9042 53.4008 53.2572 53.0492C53.6102 52.6975 54.089 52.5 54.5882 52.5ZM41.4118 28.125C41.4118 27.6277 41.6101 27.1508 41.9631 26.7992C42.3161 26.4475 42.7949 26.25 43.2941 26.25H58.3529C58.8522 26.25 59.331 26.4475 59.684 26.7992C60.037 27.1508 60.2353 27.6277 60.2353 28.125V31.875C60.2353 32.3723 60.037 32.8492 59.684 33.2008C59.331 33.5525 58.8522 33.75 58.3529 33.75H43.2941C42.7949 33.75 42.3161 33.5525 41.9631 33.2008C41.6101 32.8492 41.4118 32.3723 41.4118 31.875V28.125Z" fill="#0074B2"/>
</svg>
