<svg width="76" height="57" viewBox="0 0 76 57" fill="none" xmlns="http://www.w3.org/2000/svg">
<path id="Vector" d="M72.9375 40.4375H70.25V8.1875C70.25 6.04919 69.4006 3.99846 67.8885 2.48645C66.3765 0.97444 64.3258 0.125 62.1875 0.125H13.8125C11.6742 0.125 9.62346 0.97444 8.11145 2.48645C6.59944 3.99846 5.75 6.04919 5.75 8.1875V40.4375H3.0625C2.34973 40.4375 1.66615 40.7206 1.16215 41.2246C0.658146 41.7287 0.375 42.4122 0.375 43.125V48.5C0.375 50.6383 1.22444 52.689 2.73645 54.201C4.24846 55.7131 6.29919 56.5625 8.4375 56.5625H67.5625C69.7008 56.5625 71.7515 55.7131 73.2635 54.201C74.7756 52.689 75.625 50.6383 75.625 48.5V43.125C75.625 42.4122 75.3419 41.7287 74.8379 41.2246C74.3338 40.7206 73.6503 40.4375 72.9375 40.4375ZM11.125 8.1875C11.125 7.47473 11.4081 6.79115 11.9122 6.28715C12.4162 5.78315 13.0997 5.5 13.8125 5.5H62.1875C62.9003 5.5 63.5838 5.78315 64.0879 6.28715C64.5919 6.79115 64.875 7.47473 64.875 8.1875V40.4375H11.125V8.1875ZM70.25 48.5C70.25 49.2128 69.9669 49.8963 69.4629 50.4004C68.9588 50.9044 68.2753 51.1875 67.5625 51.1875H8.4375C7.72473 51.1875 7.04115 50.9044 6.53715 50.4004C6.03315 49.8963 5.75 49.2128 5.75 48.5V45.8125H70.25V48.5ZM46.0625 13.5625C46.0625 14.2753 45.7794 14.9588 45.2754 15.4628C44.7713 15.9669 44.0878 16.25 43.375 16.25H32.625C31.9122 16.25 31.2287 15.9669 30.7247 15.4628C30.2206 14.9588 29.9375 14.2753 29.9375 13.5625C29.9375 12.8497 30.2206 12.1662 30.7247 11.6622C31.2287 11.1581 31.9122 10.875 32.625 10.875H43.375C44.0878 10.875 44.7713 11.1581 45.2754 11.6622C45.7794 12.1662 46.0625 12.8497 46.0625 13.5625Z" fill="#0074B2"/>
</svg>
