<svg width="62" height="56" viewBox="0 0 62 56" fill="none" xmlns="http://www.w3.org/2000/svg">
<path id="Vector" d="M52.415 30.52L36.4382 46.48H29.9915V40.04L45.9682 24.08L52.415 30.52ZM61.945 28.28C61.945 29.12 61.1041 29.96 60.2633 30.8L53.2559 37.8L50.7333 35.28L58.0209 28L56.3391 26.32L54.3771 28.28L47.9303 21.84L54.0968 15.96C54.6574 15.4 55.7785 15.4 56.6194 15.96L60.5435 19.88C61.1041 20.44 61.1041 21.56 60.5435 22.4C59.983 22.96 59.4224 23.52 59.4224 24.08C59.4224 24.64 59.983 25.2 60.5435 25.76C61.3844 26.6 62.2253 27.44 61.945 28.28ZM5.60588 50.4V5.6H25.2265V19.6H39.2412V23.8L44.8471 18.2V16.8L28.0294 0H5.60588C2.52265 0 0 2.52 0 5.6V50.4C0 53.48 2.52265 56 5.60588 56H39.2412C42.3244 56 44.8471 53.48 44.8471 50.4H5.60588ZM28.0294 42.28C27.4688 42.28 26.9082 42.56 26.6279 42.56L25.2265 36.4H21.0221L15.1359 41.16L16.8177 33.6H12.6132L9.8103 47.6H14.0147L22.1432 40.32L23.825 46.76H26.6279L28.0294 46.48V42.28Z" fill="#0074B2"/>
</svg>
