<svg width="120" height="119" viewBox="0 0 120 119" fill="none" xmlns="http://www.w3.org/2000/svg">
<circle cx="83" cy="82" r="37" fill="#0074B2"/>
<path fill-rule="evenodd" clip-rule="evenodd" d="M42.3191 0H52.5995C61.5462 0 68.6335 0 74.1777 0.747209C79.8826 1.51884 84.5019 3.14023 88.1478 6.79326C88.7926 7.4876 89.1437 8.40596 89.127 9.35488C89.1103 10.3038 88.7272 11.2092 88.0583 11.8802C87.3895 12.5513 86.4871 12.9357 85.5413 12.9525C84.5955 12.9692 83.6802 12.617 82.9881 11.97C80.9242 9.90907 78.101 8.6686 73.2042 8.0093C68.2051 7.33535 61.6095 7.32558 52.3269 7.32558H42.5917C33.3091 7.32558 26.7184 7.33535 21.7096 8.0093C16.8176 8.6686 13.9944 9.90907 11.9354 11.9749C9.87641 14.0407 8.64003 16.8733 7.9829 21.7863C7.31117 26.8067 7.30143 33.4193 7.30143 42.7326V62.2674C7.30143 71.5807 7.31117 78.1981 7.9829 83.2186C8.64003 88.1267 9.87641 90.9593 11.9354 93.0251C13.9944 95.0909 16.8176 96.3314 21.7145 96.9907C26.7184 97.6646 33.3091 97.6744 42.5917 97.6744H52.3269C61.6095 97.6744 68.2051 97.6646 73.2091 96.9907C78.101 96.3314 80.9242 95.0909 82.9832 93.0251C86.3711 89.626 87.3982 84.3467 87.5734 71.9812C87.5876 71.0097 87.9859 70.0837 88.6805 69.4069C89.3752 68.7301 90.3094 68.3578 91.2777 68.3721C92.2459 68.3863 93.1688 68.7859 93.8434 69.4829C94.518 70.1799 94.889 71.1172 94.8748 72.0886C94.7045 83.9414 93.9402 92.3951 88.1478 98.2067C84.5019 101.86 79.8826 103.481 74.1777 104.253C68.6286 105 61.5462 105 52.5995 105H42.3191C33.3724 105 26.2852 105 20.7409 104.253C15.0361 103.481 10.4167 101.86 6.77086 98.2067C3.12988 94.5488 1.51383 89.9142 0.744747 84.1905C5.80266e-07 78.623 0 71.5172 0 62.5409V42.4591C0 33.4828 5.80266e-07 26.3721 0.744747 20.8095C1.51383 15.0858 3.12988 10.4512 6.77086 6.79326C10.4167 3.14023 15.0361 1.51884 20.7409 0.747209C26.29 0 33.3724 0 42.3191 0ZM77.22 28.306C78.4368 27.0281 79.8959 26.0069 81.5116 25.3027C83.1273 24.5984 84.8669 24.2252 86.6284 24.205C88.3899 24.1848 90.1376 24.518 91.7689 25.185C93.4002 25.852 94.8822 26.8394 96.1278 28.0892C97.3734 29.3389 98.3576 30.8258 99.0224 32.4625C99.6872 34.0992 100.019 35.8527 99.9991 37.62C99.979 39.3873 99.607 41.1327 98.9051 42.7537C98.2032 44.3748 97.1854 45.8387 95.9116 47.0595L72.771 70.2914C71.8082 71.309 70.784 72.2664 69.7044 73.1581C68.5848 74.0372 67.3679 74.7893 66.0828 75.4047C64.9925 75.9272 63.8437 76.3081 62.1595 76.8698L52.0154 80.2639C50.917 80.6327 49.7379 80.6869 48.6104 80.4206C47.483 80.1542 46.4518 79.5778 45.6328 78.7561C44.8138 77.9343 44.2393 76.8998 43.9738 75.7686C43.7083 74.6374 43.7623 73.4544 44.1299 72.3523L47.4447 62.3895L47.5129 62.1795C48.0775 60.4849 48.4572 59.3372 48.978 58.2433C49.5908 56.9542 50.3416 55.7358 51.2171 54.6098C51.9619 53.6526 52.8137 52.7979 54.0744 51.533L54.2253 51.3816L77.22 28.306ZM90.752 33.4828C90.2023 32.9311 89.5497 32.4935 88.8314 32.1949C88.1132 31.8963 87.3433 31.7426 86.5658 31.7426C85.7883 31.7426 85.0185 31.8963 84.3002 32.1949C83.5819 32.4935 82.9293 32.9311 82.3796 33.4828L81.4937 34.3716C81.5424 34.5328 81.596 34.7135 81.6592 34.8942C82.1168 36.2128 82.9881 37.9709 84.6334 39.6216C86.0895 41.0917 87.888 42.1743 89.8661 42.7716L90.752 41.8828C91.3018 41.3313 91.738 40.6765 92.0356 39.9559C92.3332 39.2353 92.4864 38.4628 92.4864 37.6828C92.4864 36.9027 92.3332 36.1303 92.0356 35.4097C91.738 34.689 91.3018 34.0343 90.752 33.4828ZM84.2878 48.3684C82.5112 47.431 80.8865 46.229 79.4688 44.8033C78.0478 43.3809 76.8498 41.7508 75.9155 39.9684L59.385 56.5535C57.9198 58.0235 57.4039 58.5509 56.9707 59.1077C56.4206 59.8158 55.9485 60.5826 55.5639 61.3884C55.2621 62.0281 55.0236 62.7265 54.3665 64.6995L52.4194 70.56L53.797 71.9421L59.6381 69.9886C61.6046 69.3293 62.3007 69.09 62.9384 68.7872C63.7415 68.3965 64.5057 67.9277 65.2115 67.3758C65.7665 66.9412 66.2922 66.4235 67.7573 64.9535L84.2878 48.3684ZM24.3381 37.8488C24.3381 36.8774 24.7227 35.9458 25.4074 35.2589C26.092 34.5719 27.0206 34.186 27.9888 34.186H59.6284C60.5966 34.186 61.5252 34.5719 62.2098 35.2589C62.8945 35.9458 63.2791 36.8774 63.2791 37.8488C63.2791 38.8203 62.8945 39.7519 62.2098 40.4388C61.5252 41.1257 60.5966 41.5116 59.6284 41.5116H27.9888C27.0206 41.5116 26.092 41.1257 25.4074 40.4388C24.7227 39.7519 24.3381 38.8203 24.3381 37.8488ZM24.3381 57.3837C24.3381 56.4123 24.7227 55.4806 25.4074 54.7937C26.092 54.1068 27.0206 53.7209 27.9888 53.7209H40.1579C41.1261 53.7209 42.0547 54.1068 42.7393 54.7937C43.424 55.4806 43.8086 56.4123 43.8086 57.3837C43.8086 58.3552 43.424 59.2868 42.7393 59.9737C42.0547 60.6606 41.1261 61.0465 40.1579 61.0465H27.9888C27.0206 61.0465 26.092 60.6606 25.4074 59.9737C24.7227 59.2868 24.3381 58.3552 24.3381 57.3837ZM24.3381 76.9186C24.3381 75.9472 24.7227 75.0155 25.4074 74.3286C26.092 73.6417 27.0206 73.2558 27.9888 73.2558H35.2903C36.2585 73.2558 37.1871 73.6417 37.8717 74.3286C38.5564 75.0155 38.941 75.9472 38.941 76.9186C38.941 77.89 38.5564 78.8217 37.8717 79.5086C37.1871 80.1955 36.2585 80.5814 35.2903 80.5814H27.9888C27.0206 80.5814 26.092 80.1955 25.4074 79.5086C24.7227 78.8217 24.3381 77.89 24.3381 76.9186Z" fill="black"/>
</svg>
