<svg width="18" height="19" viewBox="0 0 18 19" fill="none" xmlns="http://www.w3.org/2000/svg">
<path d="M15.3769 3.11892C14.5476 2.28546 13.5599 1.62463 12.4712 1.17498C11.3826 0.725322 10.2149 0.495846 9.03618 0.499932C4.09749 0.499932 0.0723619 4.50492 0.0723619 9.4189C0.0723619 10.9939 0.488442 12.5239 1.26633 13.8739L0 18.4999L4.74874 17.2579C6.0603 17.9689 7.53467 18.3469 9.03618 18.3469C13.9749 18.3469 18 14.3419 18 9.42791C18 7.04291 17.0683 4.80192 15.3769 3.11892ZM9.03618 16.8349C7.69749 16.8349 6.38593 16.4749 5.23719 15.7999L4.96583 15.6379L2.14372 16.3759L2.89447 13.6399L2.71357 13.3609C1.96982 12.1792 1.5749 10.8132 1.57387 9.4189C1.57387 5.33292 4.9206 2.00293 9.02713 2.00293C11.0171 2.00293 12.8894 2.77693 14.2915 4.18092C14.9857 4.86849 15.5358 5.68631 15.91 6.587C16.2842 7.48768 16.475 8.45331 16.4714 9.42791C16.4894 13.5139 13.1427 16.8349 9.03618 16.8349ZM13.1246 11.2909C12.8985 11.1829 11.795 10.6429 11.596 10.5619C11.3879 10.4899 11.2432 10.4539 11.0894 10.6699C10.9357 10.8949 10.5106 11.3989 10.3839 11.5429C10.2573 11.6959 10.1216 11.7139 9.89548 11.5969C9.66935 11.4889 8.94573 11.2459 8.09548 10.4899C7.42613 9.8959 6.98291 9.16691 6.84724 8.94191C6.7206 8.71691 6.82914 8.59991 6.94673 8.48291C7.04623 8.38391 7.17286 8.22191 7.28141 8.09591C7.38995 7.96991 7.43518 7.87091 7.50754 7.72691C7.5799 7.57391 7.54372 7.44791 7.48945 7.33991C7.43517 7.23191 6.98291 6.13392 6.80201 5.68392C6.6211 5.25192 6.43116 5.30592 6.29548 5.29692H5.86131C5.70754 5.29692 5.47236 5.35092 5.26432 5.57592C5.06533 5.80092 4.48643 6.34091 4.48643 7.43891C4.48643 8.53691 5.29146 9.5989 5.4 9.7429C5.50854 9.8959 6.98291 12.1459 9.22613 13.1089C9.7598 13.3429 10.1759 13.4779 10.5015 13.5769C11.0352 13.7479 11.5236 13.7209 11.9126 13.6669C12.3467 13.6039 13.2422 13.1269 13.4231 12.6049C13.6131 12.0829 13.6131 11.6419 13.5497 11.5429C13.4864 11.4439 13.3508 11.3989 13.1246 11.2909Z" fill="#0074B2"/>
</svg>
